<svg xmlns="http://www.w3.org/2000/svg" xmlns:xlink="http://www.w3.org/1999/xlink" width="56" height="56" version="1.1" viewBox="0 0 56 56"><title>complete</title><g id="staking" fill="none" fill-rule="evenodd" stroke="none" stroke-width="1"><g id="绑定资金为0" transform="translate(-32.000000, -1102.000000)"><g id="complete" transform="translate(32.000000, 1102.000000)"><path id="矩形备份-3" fill="#DFEEFF" d="M24.3190287,-7.93392707e-16 L31.6809713,7.93392707e-16 C39.0123707,-5.53363529e-16 42.5091978,0.928256111 45.768457,2.67132704 C49.0277163,4.41439796 51.585602,6.97228371 53.328673,10.231543 C55.0717439,13.4908022 56,16.9876293 56,24.3190287 L56,31.6809713 C56,39.0123707 55.0717439,42.5091978 53.328673,45.768457 C51.585602,49.0277163 49.0277163,51.585602 45.768457,53.328673 C42.5091978,55.0717439 39.0123707,56 31.6809713,56 L24.3190287,56 C16.9876293,56 13.4908022,55.0717439 10.231543,53.328673 C6.97228371,51.585602 4.41439796,49.0277163 2.67132704,45.768457 C0.928256111,42.5091978 3.68909019e-16,39.0123707 -5.28928471e-16,31.6809713 L5.28928471e-16,24.3190287 C-3.68909019e-16,16.9876293 0.928256111,13.4908022 2.67132704,10.231543 C4.41439796,6.97228371 6.97228371,4.41439796 10.231543,2.67132704 C13.4908022,0.928256111 16.9876293,5.53363529e-16 24.3190287,-7.93392707e-16 Z"/><polyline id="Path" stroke="#3394FF" stroke-linecap="round" stroke-linejoin="round" stroke-width="5" points="41 30 17 30 17 18" transform="translate(29.000000, 24.000000) rotate(-45.000000) translate(-29.000000, -24.000000)"/></g></g></g></svg>