<svg xmlns="http://www.w3.org/2000/svg" xmlns:xlink="http://www.w3.org/1999/xlink" width="144" height="144" version="1.1" viewBox="0 0 144 144"><title>Council</title><defs><linearGradient id="linearGradient-1" x1="50%" x2="50%" y1="50%" y2="95.519%"><stop offset="0%" stop-color="#FF377A"/><stop offset="100%" stop-color="#FF377A" stop-opacity="0"/></linearGradient><linearGradient id="linearGradient-2" x1="50%" x2="50%" y1="50%" y2="100%"><stop offset="0%" stop-color="#FF377A"/><stop offset="100%" stop-color="#FF377A" stop-opacity="0"/><stop offset="100%" stop-color="#FF377A" stop-opacity="0"/></linearGradient><linearGradient id="linearGradient-3" x1="66.884%" x2="66.884%" y1="45.517%" y2="97.883%"><stop offset="0%" stop-color="#FF377A"/><stop offset="100%" stop-color="#FF377A" stop-opacity="0"/></linearGradient></defs><g id="首页" fill="none" fill-rule="evenodd" stroke="none" stroke-width="1"><g id="图标" fill-rule="nonzero" transform="translate(-195.000000, -578.000000)"><g id="Council" transform="translate(195.000000, 578.000000)"><path id="Combined-Shape" fill="url(#linearGradient-1)" d="M91.2557611,67.0712524 C99.8959421,67.0712524 106.925295,74.1006053 106.925295,82.7407863 L106.925295,91.3590299 C106.925295,94.5990978 104.289288,97.2351051 101.04922,97.2351051 L89.22287,97.2350941 C89.3983088,96.6783893 89.4929386,96.0861785 89.4929386,95.4722826 L89.4929386,95.4722826 L89.4929386,83.9160013 C89.4929386,77.9482635 86.1395095,72.7489888 81.2180767,70.1036026 C83.8126059,68.1978015 87.0133667,67.0712524 90.4722844,67.0712524 L91.2557611,67.0712524 Z M90.522106,43.8233618 C96.4682912,43.8233618 101.306494,48.5671808 101.45859,54.4766938 L101.462277,54.7635328 L101.45859,55.0503717 C101.306494,60.9598847 96.4682912,65.7037037 90.522106,65.7037037 C87.0251828,65.7037037 83.9114619,64.0630254 81.9087207,61.5094461 C83.2991502,59.565441 84.1389097,57.2011309 84.2007928,54.6440336 L84.2007928,54.6440336 L84.2044709,54.3397579 L84.2007928,54.0354823 C84.1437426,51.6780866 83.4255713,49.4845418 82.2246146,47.6331836 C84.2302286,45.3008736 87.203621,43.8233618 90.522106,43.8233618 Z"/><path id="Combined-Shape" fill="url(#linearGradient-2)" d="M53.4530106,67.0712524 C56.875259,67.0712524 60.0447949,68.1740421 62.6249154,70.0429185 C57.6411936,72.669833 54.2364873,77.9028104 54.2364873,83.9160013 L54.2364873,83.9160013 L54.2364873,95.4722826 C54.2364873,96.0861785 54.3311171,96.6783893 54.5065558,97.2350941 L42.8760752,97.2351051 C39.6360073,97.2351051 37,94.5990978 37,91.3590299 L37,82.7407863 C37,74.1006053 44.0293529,67.0712524 52.6695339,67.0712524 L53.4530106,67.0712524 Z M54.0548695,43.8233618 C57.1152419,43.8233618 59.8821166,45.0799697 61.86767,47.1053616 C60.4489139,49.0618901 59.5911994,51.4501523 59.5286331,54.0354823 L59.5286331,54.0354823 L59.524955,54.3397579 L59.5286331,54.6440336 C59.5962772,57.4391852 60.593373,60.0039835 62.2226462,62.0411543 C60.21942,64.2887079 57.3023904,65.7037037 54.0548695,65.7037037 C48.1086843,65.7037037 43.2704814,60.9598847 43.1183858,55.0503717 L43.1146986,54.7635328 L43.1183858,54.4766938 C43.2704814,48.5671808 48.1086843,43.8233618 54.0548695,43.8233618 Z"/><path id="Combined-Shape" fill="url(#linearGradient-3)" d="M73.8234047,68.2464674 C82.4635857,68.2464674 89.4929386,75.2758203 89.4929386,83.9160013 L89.4929386,95.4722826 C89.4929386,98.7123505 86.8569312,101.348358 83.6168634,101.348358 L60.1125625,101.348358 C56.8724946,101.348358 54.2364873,98.7123505 54.2364873,95.4722826 L54.2364873,83.9160013 C54.2364873,75.2758203 61.2658402,68.2464674 69.9060212,68.2464674 L73.8234047,68.2464674 Z M71.8647129,42 C78.6797752,42 84.2044709,47.5246957 84.2044709,54.3397579 L84.2044709,54.3397579 L84.2007928,54.6440336 C84.0392671,61.3185058 78.5780578,66.6795159 71.8647129,66.6795159 C65.0496507,66.6795159 59.524955,61.1548202 59.524955,54.3397579 L59.524955,54.3397579 L59.5286331,54.0354823 C59.6901587,47.3610101 65.151368,42 71.8647129,42 Z"/></g></g></g></svg>