<svg xmlns="http://www.w3.org/2000/svg" xmlns:xlink="http://www.w3.org/1999/xlink" width="144" height="144" version="1.1" viewBox="0 0 144 144"><title>Treasury</title><defs><linearGradient id="linearGradient-1" x1="66.884%" x2="66.884%" y1="32.939%" y2="74.449%"><stop offset="0%" stop-color="#FF377A"/><stop offset="100%" stop-color="#FF377A" stop-opacity="0"/></linearGradient><linearGradient id="linearGradient-2" x1="66.884%" x2="66.884%" y1="32.939%" y2="75.047%"><stop offset="0%" stop-color="#FF377A"/><stop offset="100%" stop-color="#FF377A" stop-opacity="0"/></linearGradient><linearGradient id="linearGradient-3" x1="66.884%" x2="66.884%" y1="32.939%" y2="75.926%"><stop offset="0%" stop-color="#FF377A"/><stop offset="100%" stop-color="#FF377A" stop-opacity="0"/></linearGradient></defs><g id="首页" fill="none" fill-rule="evenodd" stroke="none" stroke-width="1"><g id="图标" fill-rule="nonzero" transform="translate(-371.000000, -578.000000)"><g id="Treasury" transform="translate(371.000000, 578.000000)"><polygon id="Path" fill="#FF377A" points="99.429 96.712 95.314 96.712 95.314 93.068 49.143 93.068 49.143 96.712 45.029 96.712 45.029 100.356 41.829 100.356 41.829 104 102.629 104 102.629 100.356 99.429 100.356 99.429 96.712"/><path id="Path" fill="url(#linearGradient-1)" d="M59.1999786,71.2028859 L61.0285546,71.2028859 L61.0285546,68.9253091 C61.0285546,67.5587609 60.1142687,66.1922127 58.2856959,66.1922127 L49.1428372,66.1922127 C47.7714079,66.1922127 46.3999786,67.5587609 46.3999786,68.9253091 L46.3999786,71.2028859 L49.1428372,71.2028859 L49.1428372,98.6666667 L59.1999893,98.6666667 L59.1999786,71.2028859 Z"/><path id="Path" fill="url(#linearGradient-2)" d="M95.3244391,98.6666667 L95.3244391,71.2028859 L97.6101511,71.2028859 L97.6101511,68.9253091 C97.6101511,67.5587609 96.6958652,66.1922127 94.8672924,66.1922127 L85.7244337,66.1922127 C84.3530044,66.1922127 82.9815751,67.5587609 82.9815751,68.9253091 L82.9815751,71.2028859 L85.7244337,71.2028859 L85.7244337,98.6666667 L95.3244391,98.6666667 Z"/><path id="Path" fill="url(#linearGradient-3)" d="M77.0336408,98.6666667 L77.0336408,71.2028859 L79.3193528,71.2028859 L79.3193528,68.9253091 C79.3193528,67.5587609 78.405067,66.1922127 76.5764942,66.1922127 L67.4336355,66.1922127 C66.0622062,66.1922127 64.6907768,67.5587609 64.6907768,68.9253091 L64.6907768,71.2028859 L67.4336355,71.2028859 L67.4336355,98.6666667 L77.0336408,98.6666667 Z"/><path id="Combined-Shape" fill="#FF377A" d="M69.7142666,40.6832738 C71.0856959,39.7722421 72.9142719,39.7722421 74.2857013,40.6832738 L74.2857013,40.6832738 L101.257141,56.6263006 C103.085714,57.5373292 104,59.359397 104,61.6369738 L104,61.6369738 L104,63.4590416 L40,63.4590416 L40,61.6369738 C40,59.359397 40.9142827,57.5373324 42.7428587,56.6263006 L42.7428587,56.6263006 Z M74.7428833,49.7935564 C73.371454,48.8825246 71.542878,48.8825246 70.1714486,49.7935564 L70.1714486,49.7935564 L61.9428726,54.3487206 C61.4857291,54.804236 61.4857291,54.804236 61.4857291,55.2597524 L61.4858957,55.3505569 C61.4880615,55.7152688 61.5183822,55.7152688 61.9428726,55.7152688 L82.0661285,55.7150052 C82.1301498,55.7121055 82.5142773,55.6773091 82.5142773,55.2597524 C82.9714593,54.804237 82.5143159,54.804237 82.9714593,54.3487206 L82.9714593,54.3487206 Z"/></g></g></g></svg>